<svg width="10" height="7" viewBox="0 0 10 7" fill="none" xmlns="http://www.w3.org/2000/svg">
<path fill-rule="evenodd" clip-rule="evenodd" d="M5.70633 3.79356C5.31582 4.18404 4.6827 4.18404 4.29219 3.79356L1.87467 1.37627C1.52957 1.0312 0.970075 1.0312 0.62497 1.37627C0.279818 1.72139 0.279818 2.28098 0.62497 2.6261L4.37443 6.37521C4.71954 6.72028 5.27903 6.72028 5.62414 6.37521L6.24909 5.75031C6.2491 5.7503 6.2491 5.75029 6.24909 5.75028C6.24909 5.75028 6.24909 5.75026 6.24909 5.75026L9.37503 2.62461C9.72018 2.2795 9.72018 1.71991 9.37503 1.37479C9.02992 1.02972 8.47043 1.02972 8.12533 1.37479L5.70633 3.79356Z" fill="#212353"/>
</svg>
